<svg xmlns="http://www.w3.org/2000/svg" viewBox="0 0 64 64" fill="none">
  <defs>
    <linearGradient id="bgGrad" x1="0%" y1="0%" x2="100%" y2="100%">
      <stop offset="0%" style="stop-color:#3b82f6"/>
      <stop offset="100%" style="stop-color:#1d4ed8"/>
    </linearGradient>
  </defs>
  <!-- Background -->
  <rect width="64" height="64" rx="12" fill="url(#bgGrad)"/>
  <!-- Globe/World icon for logistics -->
  <circle cx="32" cy="28" r="14" stroke="white" stroke-width="2" fill="none"/>
  <ellipse cx="32" cy="28" rx="14" ry="6" stroke="white" stroke-width="1.5" fill="none"/>
  <line x1="32" y1="14" x2="32" y2="42" stroke="white" stroke-width="1.5"/>
  <line x1="18" y1="28" x2="46" y2="28" stroke="white" stroke-width="1.5"/>
  <!-- Airplane -->
  <path d="M44 44L52 40L44 48L46 44Z" fill="white"/>
  <path d="M20 52L44 44L40 48L20 52Z" fill="white"/>
  <path d="M16 50L20 52L18 54L16 50Z" fill="white"/>
  <!-- Ship wave -->
  <path d="M12 54C14 52 16 52 18 54C20 56 22 56 24 54" stroke="white" stroke-width="1.5" stroke-linecap="round" fill="none"/>
</svg>
